<svg width="177" height="42" viewBox="0 0 177 42" fill="none" xmlns="http://www.w3.org/2000/svg">
<path d="M47.868 18.3927V8.5927H56.366V11.0847H51.116V12.2187H53.454C54.6487 12.2187 55.5633 12.4754 56.198 12.9887C56.842 13.4927 57.164 14.2254 57.164 15.1867C57.164 16.1854 56.8 16.9694 56.072 17.5387C55.344 18.108 54.3313 18.3927 53.034 18.3927H47.868ZM51.116 16.0827H52.81C53.1367 16.0827 53.3887 16.0127 53.566 15.8727C53.7527 15.7327 53.846 15.532 53.846 15.2707C53.846 14.7667 53.5007 14.5147 52.81 14.5147H51.116V16.0827ZM58.2996 18.3927V8.5927H61.5476V13.6887L64.9216 8.5927H68.0296V18.3927H64.7816V13.3107L61.4216 18.3927H58.2996ZM69.7703 18.3927V8.5927H78.2683V11.0847H73.0183V12.2187H75.3563C76.551 12.2187 77.4657 12.4754 78.1003 12.9887C78.7443 13.4927 79.0663 14.2254 79.0663 15.1867C79.0663 16.1854 78.7023 16.9694 77.9743 17.5387C77.2463 18.108 76.2337 18.3927 74.9363 18.3927H69.7703ZM73.0183 16.0827H74.7123C75.039 16.0827 75.291 16.0127 75.4683 15.8727C75.655 15.7327 75.7483 15.532 75.7483 15.2707C75.7483 14.7667 75.403 14.5147 74.7123 14.5147H73.0183V16.0827ZM80.7249 18.5747C80.5196 18.5747 80.3002 18.5607 80.0669 18.5327C79.8336 18.5047 79.5862 18.458 79.3249 18.3927L79.4929 15.7467C79.6236 15.7747 79.7449 15.7887 79.8569 15.7887C80.2209 15.7887 80.4916 15.6394 80.6689 15.3407C80.8462 15.042 80.9676 14.6407 81.0329 14.1367C81.0982 13.6234 81.1402 13.0494 81.1589 12.4147L81.2849 8.5927H89.5589V18.3927H86.3109V10.4547L87.0249 11.1547H83.4549L84.0989 10.4127L84.0429 12.2887C84.0149 13.2314 83.9496 14.09 83.8469 14.8647C83.7536 15.63 83.5902 16.2927 83.3569 16.8527C83.1236 17.4034 82.7922 17.828 82.3629 18.1267C81.9429 18.4254 81.3969 18.5747 80.7249 18.5747ZM91.2899 18.3927V8.5927H94.5379V13.6887L97.9119 8.5927H101.02V18.3927H97.7719V13.3107L94.4119 18.3927H91.2899ZM107.745 18.6167C106.951 18.6167 106.214 18.4907 105.533 18.2387C104.861 17.9867 104.277 17.632 103.783 17.1747C103.288 16.708 102.901 16.162 102.621 15.5367C102.35 14.9114 102.215 14.23 102.215 13.4927C102.215 12.746 102.35 12.0647 102.621 11.4487C102.901 10.8234 103.288 10.282 103.783 9.8247C104.277 9.35803 104.861 8.9987 105.533 8.7467C106.214 8.4947 106.951 8.3687 107.745 8.3687C108.547 8.3687 109.285 8.4947 109.957 8.7467C110.629 8.9987 111.212 9.35803 111.707 9.8247C112.201 10.282 112.584 10.8234 112.855 11.4487C113.135 12.0647 113.275 12.746 113.275 13.4927C113.275 14.23 113.135 14.9114 112.855 15.5367C112.584 16.162 112.201 16.708 111.707 17.1747C111.212 17.632 110.629 17.9867 109.957 18.2387C109.285 18.4907 108.547 18.6167 107.745 18.6167ZM107.745 15.9427C108.053 15.9427 108.337 15.8867 108.599 15.7747C108.869 15.6627 109.103 15.504 109.299 15.2987C109.504 15.084 109.663 14.8274 109.775 14.5287C109.887 14.2207 109.943 13.8754 109.943 13.4927C109.943 13.11 109.887 12.7694 109.775 12.4707C109.663 12.1627 109.504 11.906 109.299 11.7007C109.103 11.486 108.869 11.3227 108.599 11.2107C108.337 11.0987 108.053 11.0427 107.745 11.0427C107.437 11.0427 107.147 11.0987 106.877 11.2107C106.615 11.3227 106.382 11.486 106.177 11.7007C105.981 11.906 105.827 12.1627 105.715 12.4707C105.603 12.7694 105.547 13.11 105.547 13.4927C105.547 13.8754 105.603 14.2207 105.715 14.5287C105.827 14.8274 105.981 15.084 106.177 15.2987C106.382 15.504 106.615 15.6627 106.877 15.7747C107.147 15.8867 107.437 15.9427 107.745 15.9427ZM116.553 18.3927V10.4407L117.267 11.1547H113.683V8.5927H122.671V11.1547H119.087L119.801 10.4407V18.3927H116.553ZM126.785 12.2327H131.153V14.6127H126.785V12.2327ZM127.009 15.9007H131.909V18.3927H123.761V8.5927H131.727V11.0847H127.009V15.9007ZM139.409 15.1027C138.989 15.252 138.597 15.364 138.233 15.4387C137.878 15.5134 137.533 15.5507 137.197 15.5507C135.76 15.5507 134.663 15.21 133.907 14.5287C133.16 13.8474 132.787 12.8534 132.787 11.5467V8.5927H136.035V11.1827C136.035 11.78 136.166 12.2234 136.427 12.5127C136.688 12.7927 137.085 12.9327 137.617 12.9327C137.981 12.9327 138.308 12.9 138.597 12.8347C138.886 12.76 139.129 12.6574 139.325 12.5267L139.409 15.1027ZM138.975 18.3927V8.5927H142.223V18.3927H138.975ZM150.31 8.5927H153.614V18.3927H150.31V8.5927ZM147.258 18.3927H143.954V8.5927H147.258V18.3927ZM150.534 14.7807H147.034V12.0647H150.534V14.7807ZM154.53 18.3927L158.814 8.5927H162.062L166.346 18.3927H162.93L159.766 10.1607H161.054L157.89 18.3927H154.53ZM157.078 16.6847L157.918 14.3047H162.426L163.266 16.6847H157.078ZM172.038 18.3927V15.4107L172.808 16.0687H170.554C169.649 16.0687 168.865 15.924 168.202 15.6347C167.549 15.336 167.045 14.9114 166.69 14.3607C166.336 13.81 166.158 13.152 166.158 12.3867C166.158 11.6027 166.34 10.9307 166.704 10.3707C167.078 9.80137 167.605 9.3627 168.286 9.0547C168.968 8.7467 169.77 8.5927 170.694 8.5927H175.286V18.3927H172.038ZM166.2 18.3927L168.664 14.8227H171.954L169.658 18.3927H166.2ZM172.038 14.3747V10.3427L172.808 11.1407H170.75C170.33 11.1407 170.013 11.2387 169.798 11.4347C169.593 11.6307 169.49 11.9294 169.49 12.3307C169.49 12.7414 169.598 13.054 169.812 13.2687C170.027 13.474 170.34 13.5767 170.75 13.5767H172.808L172.038 14.3747Z" fill="#4D2900"/>
<path d="M56.318 32.3927L53.51 29.0127L54.277 28.5577L57.41 32.3927H56.318ZM51.313 32.3927V25.5677H52.236V32.3927H51.313ZM51.95 29.3507V28.5577H54.147V29.3507H51.95ZM54.355 29.0777L53.497 28.9477L56.214 25.5677H57.215L54.355 29.0777ZM58.8667 32.3927V25.5677H59.7897V28.5837H64.0927V25.5677H65.0157V32.3927H64.0927V29.3767H59.7897V32.3927H58.8667ZM67.6392 32.3927V25.5677H68.5622V30.9887L73.1252 25.5677H73.9442V32.3927H73.0212V26.9587L68.4712 32.3927H67.6392ZM84.6884 32.3927L82.3484 29.0127L83.1154 28.5577L85.7934 32.3927H84.6884ZM80.8144 29.3507V28.5577H82.9724V29.3507H80.8144ZM83.2064 29.0777L82.3224 28.9477L84.5974 25.5677H85.5984L83.2064 29.0777ZM76.6024 32.3927H75.4974L78.1754 28.5577L78.9294 29.0127L76.6024 32.3927ZM81.1004 32.3927H80.1774V25.5677H81.1004V32.3927ZM80.4634 29.3507H78.3184V28.5577H80.4634V29.3507ZM78.0974 29.0777L75.6924 25.5677H76.6934L78.9554 28.9477L78.0974 29.0777ZM87.3296 32.3927V25.5677H88.2526V28.5837H92.5556V25.5677H93.4786V32.3927H92.5556V29.3767H88.2526V32.3927H87.3296ZM102.758 32.3927V25.5677H103.681V32.3927H102.758ZM98.9751 27.9727C99.8331 27.9814 100.487 28.172 100.938 28.5447C101.389 28.9174 101.614 29.4547 101.614 30.1567C101.614 30.8847 101.371 31.4437 100.886 31.8337C100.401 32.2237 99.7074 32.4144 98.8061 32.4057L96.1021 32.3927V25.5677H97.0251V27.9467L98.9751 27.9727ZM98.7411 31.7037C99.3824 31.7124 99.8634 31.5867 100.184 31.3267C100.513 31.058 100.678 30.668 100.678 30.1567C100.678 29.6454 100.518 29.2727 100.197 29.0387C99.8764 28.796 99.3911 28.6704 98.7411 28.6617L97.0251 28.6357V31.6777L98.7411 31.7037ZM106.309 32.3927V25.5677H107.232V30.9887L111.795 25.5677H112.614V32.3927H111.691V26.9587L107.141 32.3927H106.309ZM109.403 24.5797C108.831 24.5797 108.367 24.4367 108.012 24.1507C107.665 23.856 107.483 23.4357 107.466 22.8897H108.129C108.138 23.2364 108.259 23.5094 108.493 23.7087C108.727 23.908 109.03 24.0077 109.403 24.0077C109.776 24.0077 110.079 23.908 110.313 23.7087C110.556 23.5094 110.681 23.2364 110.69 22.8897H111.353C111.344 23.4357 111.162 23.856 110.807 24.1507C110.452 24.4367 109.984 24.5797 109.403 24.5797ZM118.662 32.3927V25.5677H119.598L122.692 30.8067H122.302L125.448 25.5677H126.306V32.3927H125.461V26.6207L125.63 26.6987L122.692 31.5607H122.276L119.312 26.6467L119.507 26.6077V32.3927H118.662ZM133.17 32.3927V30.8847L133.131 30.6377V28.1157C133.131 27.535 132.966 27.0887 132.637 26.7767C132.316 26.4647 131.835 26.3087 131.194 26.3087C130.752 26.3087 130.332 26.3824 129.933 26.5297C129.534 26.677 129.196 26.872 128.919 27.1147L128.503 26.4257C128.85 26.131 129.266 25.9057 129.751 25.7497C130.236 25.585 130.748 25.5027 131.285 25.5027C132.169 25.5027 132.849 25.7237 133.326 26.1657C133.811 26.599 134.054 27.262 134.054 28.1547V32.3927H133.17ZM130.817 32.4577C130.306 32.4577 129.859 32.3754 129.478 32.2107C129.105 32.0374 128.819 31.8034 128.62 31.5087C128.421 31.2054 128.321 30.8587 128.321 30.4687C128.321 30.1134 128.403 29.7927 128.568 29.5067C128.741 29.212 129.019 28.978 129.4 28.8047C129.79 28.6227 130.31 28.5317 130.96 28.5317H133.313V29.2207H130.986C130.327 29.2207 129.868 29.3377 129.608 29.5717C129.357 29.8057 129.231 30.096 129.231 30.4427C129.231 30.8327 129.383 31.1447 129.686 31.3787C129.989 31.6127 130.414 31.7297 130.96 31.7297C131.48 31.7297 131.926 31.6127 132.299 31.3787C132.68 31.136 132.958 30.7894 133.131 30.3387L133.339 30.9757C133.166 31.4264 132.862 31.786 132.429 32.0547C132.004 32.3234 131.467 32.4577 130.817 32.4577ZM136.511 32.3927V25.5677H141.347V26.3737H137.2L137.434 26.1397V32.3927H136.511ZM146.919 32.3927V30.8847L146.88 30.6377V28.1157C146.88 27.535 146.715 27.0887 146.386 26.7767C146.065 26.4647 145.584 26.3087 144.943 26.3087C144.501 26.3087 144.081 26.3824 143.682 26.5297C143.283 26.677 142.945 26.872 142.668 27.1147L142.252 26.4257C142.599 26.131 143.015 25.9057 143.5 25.7497C143.985 25.585 144.497 25.5027 145.034 25.5027C145.918 25.5027 146.598 25.7237 147.075 26.1657C147.56 26.599 147.803 27.262 147.803 28.1547V32.3927H146.919ZM144.566 32.4577C144.055 32.4577 143.608 32.3754 143.227 32.2107C142.854 32.0374 142.568 31.8034 142.369 31.5087C142.17 31.2054 142.07 30.8587 142.07 30.4687C142.07 30.1134 142.152 29.7927 142.317 29.5067C142.49 29.212 142.768 28.978 143.149 28.8047C143.539 28.6227 144.059 28.5317 144.709 28.5317H147.062V29.2207H144.735C144.076 29.2207 143.617 29.3377 143.357 29.5717C143.106 29.8057 142.98 30.096 142.98 30.4427C142.98 30.8327 143.132 31.1447 143.435 31.3787C143.738 31.6127 144.163 31.7297 144.709 31.7297C145.229 31.7297 145.675 31.6127 146.048 31.3787C146.429 31.136 146.707 30.7894 146.88 30.3387L147.088 30.9757C146.915 31.4264 146.611 31.786 146.178 32.0547C145.753 32.3234 145.216 32.4577 144.566 32.4577ZM151.954 32.4707C152.517 32.4707 153.024 32.384 153.475 32.2107C153.934 32.0374 154.298 31.799 154.567 31.4957C154.835 31.1837 154.97 30.824 154.97 30.4167C154.97 29.8967 154.749 29.485 154.307 29.1817C153.873 28.8784 153.267 28.7267 152.487 28.7267L152.448 28.9737C152.89 28.9737 153.284 28.9044 153.631 28.7657C153.977 28.627 154.255 28.432 154.463 28.1807C154.671 27.9294 154.775 27.6347 154.775 27.2967C154.775 26.9154 154.645 26.5904 154.385 26.3217C154.125 26.0444 153.774 25.832 153.332 25.6847C152.898 25.5374 152.409 25.4724 151.863 25.4897C151.464 25.4897 151.065 25.546 150.667 25.6587C150.277 25.7627 149.882 25.9187 149.484 26.1267L149.744 26.8417C150.099 26.6597 150.459 26.5254 150.823 26.4387C151.187 26.3434 151.538 26.2914 151.876 26.2827C152.248 26.2827 152.582 26.326 152.877 26.4127C153.171 26.4994 153.401 26.6294 153.566 26.8027C153.739 26.976 153.826 27.184 153.826 27.4267C153.826 27.652 153.752 27.847 153.605 28.0117C153.466 28.1764 153.267 28.302 153.007 28.3887C152.747 28.4754 152.448 28.5187 152.11 28.5187H151.005V29.1947H152.175C152.747 29.1947 153.197 29.2987 153.527 29.5067C153.856 29.706 154.021 29.9877 154.021 30.3517C154.021 30.603 153.934 30.8284 153.761 31.0277C153.587 31.227 153.345 31.383 153.033 31.4957C152.721 31.6084 152.352 31.669 151.928 31.6777C151.503 31.6777 151.074 31.617 150.641 31.4957C150.207 31.3657 149.826 31.1794 149.497 30.9367L149.198 31.6257C149.57 31.9117 149.999 32.124 150.485 32.2627C150.97 32.4014 151.46 32.4707 151.954 32.4707ZM157.065 32.3927V25.5677H157.988V30.9887L162.551 25.5677H163.37V32.3927H162.447V26.9587L157.897 32.3927H157.065ZM166.015 32.3927V25.5677H166.938V28.5837H171.241V25.5677H172.164V32.3927H171.241V29.3767H166.938V32.3927H166.015Z" fill="#241400"/>
<line x1="48" y1="20.8927" x2="175" y2="20.8927" stroke="black" stroke-opacity="0.59"/>
<g clip-path="url(#clip0_1_131)">
<path d="M39.0037 14.9043C38.8339 13.6275 38.81 11.4285 39.9958 10.6901C40.017 10.6766 40.0328 10.657 40.0514 10.6402C41.0209 10.3301 41.6919 9.89492 41.1652 9.30931L26.8633 5L3.70522 8.2197C3.70522 8.2197 1.05333 8.59874 1.29023 12.7188C1.41883 14.9612 2.12213 16.0624 2.73719 16.6044L0.836863 17.1771C0.309419 17.7627 0.980256 18.1981 1.94991 18.5076C1.96834 18.5249 1.98388 18.5444 2.00544 18.5579C3.19056 19.2969 3.16775 21.4957 2.99728 22.7727C-1.26025 23.9817 0.268056 24.3756 0.268056 24.3756L1.20199 24.6016C0.545064 25.1952 -0.107347 26.3209 0.0148627 28.4559C0.251887 32.5752 2.4301 32.8595 2.4301 32.8595L17.5846 37.7852L40.4585 32.2448C40.4585 32.2448 41.9873 31.8502 37.7286 30.6412C37.5574 29.3662 37.5336 27.1676 38.7215 26.4267C38.7433 26.4136 38.7592 26.3936 38.7769 26.3771C39.7465 26.067 40.4169 25.6322 39.8901 25.0466L38.8958 24.7464C39.5589 24.3465 40.5549 23.3015 40.7109 20.5871C40.8186 18.72 40.3315 17.6265 39.7677 16.9827L41.7328 16.5072C41.733 16.5079 43.2618 16.1133 39.0037 14.9043ZM19.8711 14.8515L23.7176 14.061L36.7167 11.3896L38.6534 10.9913C38.0346 12.1239 38.0605 13.6739 38.1629 14.6701C38.1854 14.8955 38.2112 15.1013 38.2363 15.2577L36.1165 15.7848L19.7094 19.8664L19.8711 14.8515ZM3.34799 18.8604L5.28442 19.2587L17.7682 21.825L18.8588 22.0484L22.1294 22.7206L22.2907 27.7356L5.42781 23.5402L3.76538 23.1271C3.78982 22.9704 3.81565 22.7648 3.83908 22.5388C3.94086 21.5433 3.96731 19.993 3.34799 18.8604ZM2.59568 12.5205C2.57224 11.4246 2.76753 10.6321 3.16223 10.2292C3.41342 9.972 3.70986 9.91848 3.91316 9.91848C4.02058 9.91848 4.09792 9.9334 4.10318 9.9334L14.0814 13.1864L19.0596 14.8095L18.8963 19.8595L4.93032 15.944L4.1933 15.7376C4.16623 15.7299 4.1295 15.7246 4.10118 15.7234C4.04364 15.7193 2.66286 15.5922 2.59568 12.5205ZM17.6207 35.5974L2.91806 31.4753C2.89086 31.4674 2.85451 31.4622 2.82619 31.4608C2.76765 31.4569 1.38624 31.3299 1.31943 28.259C1.29562 27.1617 1.49191 26.3699 1.88586 25.9667C2.13768 25.7095 2.43424 25.656 2.63717 25.656C2.74484 25.656 2.82192 25.6704 2.82756 25.6704C2.82756 25.6704 2.82819 25.6704 2.82756 25.6704L17.783 30.5473L17.6207 35.5974ZM36.8866 30.4073C36.9098 30.6334 36.9356 30.8388 36.9607 30.9955L18.4334 35.6045L18.5954 30.5895L22.5563 29.7752L23.1413 29.9167L25.3338 29.2041L35.4404 27.1273L37.3778 26.7287C36.7584 27.8612 36.784 29.4118 36.8866 30.4073ZM37.9071 23.5917C37.8734 23.5925 37.8397 23.597 37.808 23.607L36.4106 23.9982L23.1057 27.7289L22.943 22.679L27.3082 21.2552L37.878 17.8081C37.8794 17.8075 38.4341 17.6843 38.8412 18.0983C39.2353 18.5011 39.4308 19.2937 39.4077 20.3896C39.3388 23.4602 37.9574 23.5878 37.9071 23.5917Z" fill="#4D2900"/>
</g>
<defs>
<clipPath id="clip0_1_131">
<rect width="42" height="42" fill="white"/>
</clipPath>
</defs>
</svg>
